<?xml version="1.0" encoding="utf-8"?>
<svg xmlns="http://www.w3.org/2000/svg" viewBox="0 0 64 64" width="64px" height="64px">
    <style>
        :root {
            --logo-color: rgb(0, 0, 0);
        }
    </style>
    <g id="object-0">
        <path
            d="M 8 0 L 56 0 C 60.418 0 64 3.582 64 8 L 64 56 C 64 60.418 60.418 64 56 64 L 8 64 C 3.582 64 0 60.418 0 56 L 0 8 C 0 3.582 3.582 0 8 0 Z M 8 34.299 L 8 53 C 8 54.105 8.895 55 10 55 L 15.5 55 C 16.605 55 17.5 54.105 17.5 53 L 17.5 34.299 C 17.5 33.194 16.605 32.299 15.5 32.299 L 10 32.299 C 8.895 32.299 8 33.194 8 34.299 Z M 20.5 19.916 L 20.5 53 C 20.5 54.105 21.395 55 22.5 55 L 28 55 C 29.105 55 30 54.105 30 53 L 30 19.916 C 30 18.811 29.105 17.916 28 17.916 L 22.5 17.916 C 21.395 17.916 20.5 18.811 20.5 19.916 Z M 33 23.611 L 33 53 C 33 54.105 33.895 55 35 55 L 40.5 55 C 41.605 55 42.5 54.105 42.5 53 L 42.5 23.611 C 42.5 22.506 41.605 21.611 40.5 21.611 L 35 21.611 C 33.895 21.611 33 22.506 33 23.611 Z M 45.5 9.981 L 45.5 53 C 45.5 54.105 46.395 55 47.5 55 L 53 55 C 54.105 55 55 54.105 55 53 L 55 9.981 C 55 8.876 54.105 7.981 53 7.981 L 47.5 7.981 C 46.395 7.981 45.5 8.876 45.5 9.981 Z"
            style="stroke-width: 0px; stroke: var(--logo-color); fill: var(--logo-color);" />
        <g>
            <path
                d="M 6.315 53.97 L 20.596 29.505 C 20.596 29.505 21.113 28.897 21.635 28.708 C 22.157 28.519 23.001 28.632 23.001 28.632 L 34.546 32.795 L 48.385 18.666 L 46.679 18.533 C 46.432 18.514 46.237 18.317 46.219 18.07 C 46.201 17.823 46.367 17.601 46.608 17.546 L 46.607 17.547 L 53.293 16.041 C 53.461 16.003 53.637 16.055 53.759 16.177 C 53.88 16.3 53.93 16.476 53.89 16.644 L 52.383 22.962 C 52.326 23.201 52.104 23.363 51.859 23.345 C 51.614 23.326 51.419 23.133 51.399 22.888 L 51.278 21.429 L 36.505 36.512 C 36.505 36.512 35.973 37.065 35.555 37.16 C 35.138 37.255 34.398 36.994 34.398 36.994 L 23.211 32.96 L 9.769 55.987 L 6.315 53.97 Z"
                style="fill: var(--logo-color);" />
        </g>
    </g>
</svg>